<svg width="121" height="37" viewBox="0 0 121 37" fill="none" xmlns="http://www.w3.org/2000/svg">
<path fill-rule="evenodd" clip-rule="evenodd" d="M74.9464 28.9352C67.973 34.1942 57.8655 37 49.1631 37C36.961 37 25.9759 32.3824 17.6653 24.7023C17.0123 24.0984 17.5974 23.2754 18.3809 23.7457C27.3497 29.0848 38.4392 32.2969 49.8944 32.2969C57.62 32.2969 66.1187 30.6614 73.9331 27.2677C75.1136 26.7546 76.1008 28.0587 74.9464 28.9352Z" fill="#FF9900"/>
<path fill-rule="evenodd" clip-rule="evenodd" d="M77.8466 25.5415C76.9586 24.3764 71.9544 24.991 69.7083 25.2636C69.0241 25.3491 68.9196 24.7399 69.536 24.3016C73.5215 21.4316 80.0613 22.26 80.8239 23.222C81.5866 24.1894 80.6255 30.8967 76.8802 34.0981C76.3056 34.5898 75.7572 34.3279 76.0131 33.6759C76.8541 31.5274 78.7398 26.712 77.8466 25.5415Z" fill="#FF9900"/>
<path fill-rule="evenodd" clip-rule="evenodd" d="M69.8627 4.04071V1.25088C69.8627 0.828668 70.1761 0.54541 70.5522 0.54541H82.7596C83.1513 0.54541 83.4648 0.834013 83.4648 1.25088V3.63987C83.4595 4.04071 83.1305 4.56447 82.5454 5.39287L76.2197 14.6335C78.5703 14.5747 81.0515 14.9328 83.1827 16.162C83.6633 16.4399 83.7938 16.8461 83.8304 17.247V20.2239C83.8304 20.63 83.3916 21.1057 82.932 20.8598C79.1762 18.845 74.1878 18.6258 70.0351 20.8812C69.612 21.1164 69.168 20.6461 69.168 20.2399V17.4126C69.168 16.9584 69.1732 16.1834 69.6172 15.494L76.9458 4.74084H70.5679C70.1761 4.74084 69.8627 4.45759 69.8627 4.04071Z" fill="#221F1F"/>
<path fill-rule="evenodd" clip-rule="evenodd" d="M25.3343 21.4479H21.6204C21.2652 21.4212 20.9832 21.1486 20.957 20.8012V1.29916C20.957 0.909011 21.2757 0.599028 21.6727 0.599028H25.1358C25.4963 0.61505 25.7836 0.898319 25.8097 1.25106V3.80038H25.8776C26.7813 1.33657 28.4789 0.1875 30.7668 0.1875C33.0913 0.1875 34.5434 1.33657 35.5881 3.80038C36.4866 1.33657 38.529 0.1875 40.7176 0.1875C42.2742 0.1875 43.9771 0.844873 45.0166 2.31996C46.1919 3.96072 45.9516 6.34436 45.9516 8.43406L45.9464 20.7424C45.9464 21.1326 45.6277 21.4479 45.2307 21.4479H41.522C41.1512 21.4212 40.8534 21.1166 40.8534 20.7424V10.4062C40.8534 9.58313 40.9266 7.53084 40.749 6.75054C40.4721 5.44115 39.6416 5.07237 38.5655 5.07237C37.6671 5.07237 36.7268 5.68699 36.3455 6.67038C35.9642 7.65377 36.0008 9.29987 36.0008 10.4062V20.7424C36.0008 21.1326 35.6821 21.4479 35.2852 21.4479H31.5765C31.2004 21.4212 30.9078 21.1166 30.9078 20.7424L30.9026 10.4062C30.9026 8.23097 31.2526 5.02962 28.6147 5.02962C25.9455 5.02962 26.05 8.1508 26.05 10.4062V20.7424C26.05 21.1326 25.7313 21.4479 25.3343 21.4479Z" fill="#221F1F"/>
<path fill-rule="evenodd" clip-rule="evenodd" d="M93.9748 0.187012C99.4856 0.187012 102.468 5.02913 102.468 11.186C102.468 17.1344 99.1722 21.8536 93.9748 21.8536C88.5633 21.8536 85.6172 17.0115 85.6172 10.9776C85.6172 4.9062 88.5998 0.187012 93.9748 0.187012ZM94.0062 4.16867C91.269 4.16867 91.0967 7.98463 91.0967 10.3629C91.0967 12.7466 91.0601 17.8345 93.9748 17.8345C96.853 17.8345 96.9888 13.73 96.9888 11.2287C96.9888 9.58264 96.9209 7.61587 96.4351 6.05527C96.0172 4.69777 95.1867 4.16867 94.0062 4.16867Z" fill="#221F1F"/>
<path fill-rule="evenodd" clip-rule="evenodd" d="M109.614 21.4474H105.916C105.545 21.4207 105.247 21.1161 105.247 20.742L105.242 1.23453C105.274 0.876452 105.582 0.598539 105.958 0.598539H109.4C109.724 0.614562 109.99 0.839042 110.063 1.14368V4.12591H110.131C111.171 1.459 112.628 0.187012 115.193 0.187012C116.859 0.187012 118.484 0.80163 119.529 2.48515C120.5 4.04574 120.5 6.66989 120.5 8.55649V20.8328C120.458 21.1749 120.15 21.4474 119.784 21.4474H116.06C115.721 21.4207 115.438 21.1642 115.402 20.8328V10.24C115.402 8.10756 115.642 4.98637 113.077 4.98637C112.174 4.98637 111.343 5.60634 110.931 6.54697C110.408 7.73879 110.34 8.92527 110.34 10.24V20.742C110.335 21.1321 110.011 21.4474 109.614 21.4474Z" fill="#221F1F"/>
<path fill-rule="evenodd" clip-rule="evenodd" d="M60.1318 12.132C60.1318 13.6124 60.1683 14.847 59.437 16.1618C58.8468 17.2307 57.9066 17.888 56.8671 17.888C55.441 17.888 54.6053 16.7764 54.6053 15.1356C54.6053 11.8969 57.4417 11.309 60.1318 11.309V12.132ZM63.8771 21.394C63.6315 21.6185 63.2763 21.6345 62.9995 21.4849C61.7667 20.4374 61.5421 19.951 60.8683 18.9516C58.8311 21.0787 57.3842 21.7147 54.7463 21.7147C51.6174 21.7147 49.1885 19.7426 49.1885 15.793C49.1885 12.7092 50.8182 10.6088 53.1479 9.58269C55.1642 8.67412 57.9797 8.51379 60.1318 8.2626V7.77091C60.1318 6.86768 60.1997 5.79878 59.6773 5.01849C59.2281 4.31836 58.361 4.02975 57.5931 4.02975C56.1776 4.02975 54.9187 4.77264 54.6105 6.31185C54.5478 6.6539 54.3023 6.99061 53.9628 7.00664L50.3638 6.61115C50.0608 6.54167 49.7213 6.29048 49.8101 5.81482C50.6354 1.34682 54.5844 0 58.1155 0C59.9228 0 62.2839 0.491695 63.7099 1.89195C65.5172 3.61823 65.3449 5.92171 65.3449 8.42828V14.35C65.3449 16.1297 66.0657 16.91 66.7448 17.872C66.9798 18.2141 67.0321 18.6256 66.7291 18.8821C65.9717 19.5288 64.624 20.7313 63.8823 21.4047L63.877 21.394" fill="#221F1F"/>
<path fill-rule="evenodd" clip-rule="evenodd" d="M11.4433 12.132C11.4433 13.6124 11.4798 14.847 10.7486 16.1618C10.1583 17.2307 9.22328 17.888 8.17858 17.888C6.75255 17.888 5.92202 16.7764 5.92202 15.1356C5.92202 11.8969 8.75839 11.309 11.4433 11.309V12.132ZM15.1885 21.394C14.943 21.6185 14.5878 21.6345 14.311 21.4849C13.0782 20.4374 12.8589 19.951 12.1798 18.9516C10.1426 21.0787 8.70093 21.7147 6.05783 21.7147C2.93416 21.7147 0.5 19.7426 0.5 15.793C0.5 12.7092 2.13496 10.6088 4.45943 9.58269C6.47571 8.67412 9.29119 8.51379 11.4433 8.2626V7.77091C11.4433 6.86768 11.5112 5.79878 10.9941 5.01849C10.5396 4.31836 9.67251 4.02975 8.90987 4.02975C7.4943 4.02975 6.2302 4.77264 5.92202 6.31185C5.85933 6.6539 5.61383 6.99061 5.27952 7.00664L1.67529 6.61115C1.37233 6.54167 1.03802 6.29048 1.1216 5.81482C1.95214 1.34682 5.8959 0 9.427 0C11.2343 0 13.5954 0.491695 15.0214 1.89195C16.8287 3.61823 16.6564 5.92171 16.6564 8.42828V14.35C16.6564 16.1297 17.3772 16.91 18.0563 17.872C18.2965 18.2141 18.3488 18.6256 18.0458 18.8821C17.2884 19.5288 15.9407 20.7313 15.199 21.4047L15.1885 21.394Z" fill="#221F1F"/>
</svg>
