<svg width="195" height="52" viewBox="0 0 195 52" fill="none" xmlns="http://www.w3.org/2000/svg">
<path d="M54.081 21.3999C57.037 21.3999 59.0213 22.742 60.2361 24.4094V0.659158C60.2361 0.211808 59.7097 -0.0728681 59.3452 0.211809L30.1488 21.6439H30.9182C33.9553 21.6439 35.494 23.596 35.494 25.7108C35.494 27.3781 34.6437 28.5982 33.4693 29.1269C33.2669 29.2082 33.2669 29.4929 33.4693 29.5742C34.8056 30.1436 35.7775 31.567 35.7775 33.275C35.7775 35.7151 34.1982 37.6265 31.1612 37.6265H22.8598C22.6978 37.6265 22.5359 37.5045 22.5359 37.3012V27.2155L0.7904 43.1981C0.42595 43.5234 0.587927 44.0928 1.07386 44.0928H59.7097C59.9931 44.0928 60.1956 43.8894 60.1956 43.6047V35.5118C58.6163 36.9758 56.5511 37.9112 54.0405 37.9112C49.3431 37.9112 45.5366 34.6578 45.5366 29.6556C45.5771 24.6127 49.4241 21.3999 54.081 21.3999ZM42.4591 37.3418C42.4591 37.5045 42.3376 37.6265 42.1756 37.6265H39.3815C39.2195 37.6265 39.098 37.5045 39.098 37.3418V21.9286C39.098 21.7659 39.2195 21.6439 39.3815 21.6439H42.1756C42.3376 21.6439 42.4591 21.7659 42.4591 21.9286V37.3418Z" fill="#33313D"/>
<path d="M26.2614 27.9871H30.1894C31.3232 27.9871 32.0521 27.3364 32.0521 26.3197C32.0521 25.3437 31.3232 24.6523 30.1894 24.6523H26.0995C26.0185 24.6523 25.9375 24.7337 25.9375 24.815V27.7025C25.9375 27.8651 26.0995 27.9871 26.2614 27.9871Z" fill="#33313D"/>
<path d="M26.2614 34.6601H30.3514C31.6067 34.6601 32.3761 33.9688 32.3761 32.8301C32.3761 31.8134 31.6472 31 30.3514 31H26.2614C26.0995 31 25.9375 31.122 25.9375 31.3253V34.3348C25.9375 34.4975 26.0995 34.6601 26.2614 34.6601Z" fill="#33313D"/>
<path d="M57.6839 26.2402C56.9145 25.2235 55.6187 24.4102 54.0799 24.4102C51.1643 24.4102 49.0586 26.6469 49.0586 29.6564C49.0586 32.6658 51.1643 34.9025 54.0799 34.9025C55.4162 34.9025 56.6715 34.3332 57.3599 33.7638C57.4004 33.7232 57.4409 33.6418 57.4409 33.5605V32.0151C57.4409 31.8931 57.3194 31.7711 57.198 31.7711H53.594C53.3915 31.7711 53.27 31.6084 53.27 31.4458V29.1683C53.27 28.965 53.432 28.843 53.594 28.843H60.2755V25.2235L58.1293 26.4029C57.9674 26.4436 57.7649 26.3622 57.6839 26.2402Z" fill="#33313D"/>
<path d="M62.7441 29.658C62.7441 24.7371 66.2671 21.4023 70.8025 21.4023C73.7586 21.4023 75.6618 22.9071 76.7957 24.7371C76.8767 24.8591 76.8362 25.0625 76.6742 25.1031L74.8519 26.0792C74.7305 26.1605 74.5685 26.1199 74.528 25.9978C73.7586 24.7778 72.3413 23.8831 70.8025 23.8831C67.7654 23.8831 65.4978 26.2825 65.4978 29.658C65.4978 32.9928 67.7654 35.4329 70.8025 35.4329C72.3413 35.4329 73.7586 34.5382 74.528 33.3181C74.609 33.1961 74.7305 33.1554 74.8519 33.2368L76.6742 34.1721C76.8362 34.2535 76.8767 34.4162 76.7957 34.5788C75.6213 36.4089 73.7181 37.9543 70.8025 37.9543C66.2671 37.9136 62.7441 34.5382 62.7441 29.658Z" fill="#33313D"/>
<path d="M78.375 29.6543C78.375 25.6689 80.6427 22.5781 84.0442 21.6834C89.8349 20.138 95.1397 25.5875 93.8843 31.6471C93.1149 35.3885 90.1589 37.9506 86.2309 37.9506C81.6145 37.91 78.375 34.4125 78.375 29.6543ZM91.2927 29.6543C91.2927 26.3602 89.268 23.8795 86.1904 23.8795C83.0723 23.8795 81.0881 26.3602 81.0881 29.6543C81.0881 32.9485 83.0723 35.4292 86.1904 35.4292C89.3085 35.4292 91.2927 32.9078 91.2927 29.6543Z" fill="#33313D"/>
<path d="M110.573 37.4254V25.2656L105.754 37.5067C105.754 37.5474 105.673 37.5881 105.632 37.5881H104.62C104.58 37.5881 104.499 37.5474 104.499 37.5067L99.6393 25.2656V37.4254C99.6393 37.5474 99.5583 37.6287 99.4368 37.6287H97.0072C96.8857 37.6287 96.8047 37.5474 96.8047 37.4254V21.8088C96.8047 21.6868 96.8857 21.6055 97.0072 21.6055H100.49C100.652 21.6055 100.773 21.6868 100.854 21.8495L105.106 32.8299L109.317 21.8495C109.358 21.6868 109.52 21.6055 109.682 21.6055H113.164C113.286 21.6055 113.367 21.6868 113.367 21.8088V37.4254C113.367 37.5474 113.286 37.6287 113.164 37.6287H110.735C110.694 37.6287 110.573 37.5474 110.573 37.4254Z" fill="#33313D"/>
<path d="M138.109 37.3463V21.9331C138.109 21.7704 138.231 21.6484 138.393 21.6484H148.719C148.881 21.6484 149.002 21.7704 149.002 21.9331V23.8038C149.002 23.9665 148.881 24.0885 148.719 24.0885H141.187C141.025 24.0885 140.903 24.2105 140.903 24.3732V27.9113C140.903 28.074 141.025 28.196 141.187 28.196H148.557C148.719 28.196 148.84 28.318 148.84 28.4807V30.3514C148.84 30.5141 148.719 30.6361 148.557 30.6361H141.187C141.025 30.6361 140.903 30.7581 140.903 30.9208V34.7843C140.903 34.9469 141.025 35.0689 141.187 35.0689H148.719C148.881 35.0689 149.002 35.1909 149.002 35.3536V37.2243C149.002 37.387 148.881 37.509 148.719 37.509H138.393C138.231 37.631 138.109 37.509 138.109 37.3463Z" fill="#33313D"/>
<path d="M161.957 37.4684L158.596 31.7748C158.555 31.6935 158.434 31.6528 158.353 31.6528H156.004C155.842 31.6528 155.72 31.7748 155.72 31.9375V37.3463C155.72 37.509 155.599 37.631 155.437 37.631H153.25C153.088 37.631 152.967 37.509 152.967 37.3463V21.9331C152.967 21.7704 153.088 21.6484 153.25 21.6484H159.972C163.131 21.6484 165.196 23.6818 165.196 26.6506C165.196 29.294 163.576 30.7988 161.795 31.2461C161.592 31.2868 161.511 31.4901 161.592 31.6935C162.24 32.7508 164.265 36.0043 165.034 37.1837C165.156 37.387 165.034 37.631 164.791 37.631H162.24C162.119 37.631 162.038 37.5904 161.957 37.4684ZM162.321 26.61C162.321 25.0646 161.187 24.0885 159.608 24.0885H156.044C155.882 24.0885 155.761 24.2105 155.761 24.3732V28.8874C155.761 29.05 155.882 29.172 156.044 29.172H159.608C161.187 29.172 162.321 28.196 162.321 26.61Z" fill="#33313D"/>
<path d="M184.066 37.3463V21.9331C184.066 21.7704 184.188 21.6484 184.35 21.6484H194.716C194.878 21.6484 195 21.7704 195 21.9331V23.8445C195 24.0072 194.878 24.1292 194.716 24.1292H187.144C186.982 24.1292 186.861 24.2512 186.861 24.4139V27.9927C186.861 28.1553 186.982 28.2773 187.144 28.2773H194.514C194.676 28.2773 194.797 28.3994 194.797 28.562V30.4734C194.797 30.6361 194.676 30.7581 194.514 30.7581H187.144C186.982 30.7581 186.861 30.8801 186.861 31.0428V34.9469C186.861 35.1096 186.982 35.2316 187.144 35.2316H194.716C194.878 35.2316 195 35.3536 195 35.5163V37.4277C195 37.5904 194.878 37.7124 194.716 37.7124H184.35C184.188 37.631 184.066 37.509 184.066 37.3463Z" fill="#33313D"/>
<path d="M167.223 29.576C167.223 24.6551 170.746 21.3203 175.281 21.3203C178.237 21.3203 180.14 22.825 181.274 24.6551C181.355 24.7771 181.315 24.9804 181.153 25.0211L179.33 25.9972C179.209 26.0785 179.047 26.0378 179.007 25.9158C178.237 24.6958 176.82 23.8011 175.281 23.8011C172.244 23.8011 169.976 26.2005 169.976 29.576C169.976 32.9107 172.244 35.3508 175.281 35.3508C176.82 35.3508 178.237 34.4561 179.007 33.2361C179.087 33.1141 179.209 33.0734 179.33 33.1547L181.153 34.0901C181.315 34.1715 181.355 34.3341 181.274 34.4968C180.1 36.3269 178.197 37.8723 175.281 37.8723C170.746 37.8316 167.223 34.4968 167.223 29.576Z" fill="#33313D"/>
<path d="M131.223 37.4254V25.2656L126.404 37.5067C126.404 37.5474 126.323 37.5881 126.283 37.5881H125.27C125.23 37.5881 125.149 37.5474 125.149 37.5067L120.29 25.2656V37.4254C120.29 37.5474 120.209 37.6287 120.087 37.6287H117.658C117.536 37.6287 117.455 37.5474 117.455 37.4254V21.8088C117.455 21.6868 117.536 21.6055 117.658 21.6055H121.14C121.302 21.6055 121.424 21.6868 121.505 21.8495L125.756 32.8299L129.968 21.8495C130.008 21.6868 130.17 21.6055 130.332 21.6055H133.815C133.936 21.6055 134.017 21.6868 134.017 21.8088V37.4254C134.017 37.5474 133.936 37.6287 133.815 37.6287H131.385C131.304 37.6287 131.223 37.5474 131.223 37.4254Z" fill="#33313D"/>
</svg>
