<svg width="48" height="48" viewBox="0 0 48 48" fill="none" xmlns="http://www.w3.org/2000/svg">
<rect x="0.5" y="0.5" width="47" height="47" rx="5.5" fill="white"/>
<path fill-rule="evenodd" clip-rule="evenodd" d="M29.7238 29.724C30.2445 29.2033 31.0888 29.2033 31.6095 29.724L35.6095 33.724C36.1302 34.2447 36.1302 35.0889 35.6095 35.6096C35.0888 36.1303 34.2445 36.1303 33.7238 35.6096L29.7238 31.6096C29.2031 31.0889 29.2031 30.2447 29.7238 29.724Z" fill="#F6B60E"/>
<path d="M21.3333 12C16.1787 12 12 16.1787 12 21.3333C12 26.488 16.1787 30.6667 21.3333 30.6667C26.488 30.6667 30.6667 26.488 30.6667 21.3333C30.6667 16.1787 26.488 12 21.3333 12Z" fill="#F6B60E"/>
<rect x="0.5" y="0.5" width="47" height="47" rx="5.5" stroke="#F2F3F8"/>
</svg>
