<svg width="83" height="34" viewBox="0 0 83 34" fill="none" xmlns="http://www.w3.org/2000/svg">
<path d="M11.1245 7.43408C5.34465 7.43408 0.52832 9.96904 0.52832 17.6169C0.52832 23.6757 3.76695 27.4911 11.2737 27.4911C20.1095 27.4911 20.676 21.474 20.676 21.474H16.3946C16.3946 21.474 15.4766 24.714 11.0126 24.714C7.37669 24.714 4.76164 22.1749 4.76164 18.6159H21.1237V16.3826C21.1237 12.8617 18.9616 7.43408 11.1245 7.43408ZM10.9752 10.2884C14.4362 10.2884 16.7957 12.4803 16.7957 15.7655H4.85633C4.85633 12.2778 7.93603 10.2884 10.9752 10.2884Z" fill="#E53238"/>
<path d="M21.1199 0.0283203V23.6503C21.1199 24.9912 21.0273 26.8739 21.0273 26.8739H25.1109C25.1109 26.8739 25.2574 25.5217 25.2574 24.2859C25.2574 24.2859 27.275 27.5489 32.7608 27.5489C38.5375 27.5489 42.4615 23.4028 42.4615 17.4625C42.4615 11.9364 38.8572 7.49186 32.7701 7.49186C27.0699 7.49186 25.2987 10.674 25.2987 10.674V0.0283203H21.1199ZM31.7161 10.4136C35.639 10.4136 38.1335 13.4235 38.1335 17.4625C38.1335 21.7937 35.2524 24.6271 31.7441 24.6271C27.5572 24.6271 25.2987 21.2476 25.2987 17.5011C25.2987 14.0101 27.3253 10.4136 31.7161 10.4136Z" fill="#0064D2"/>
<path d="M52.6079 7.43408C43.9126 7.43408 43.3549 12.3561 43.3549 13.1426H47.6829C47.6829 13.1426 47.9099 10.2691 52.3094 10.2691C55.1683 10.2691 57.3836 11.6218 57.3836 14.2226V15.1483H52.3094C45.573 15.1483 42.0117 17.1856 42.0117 21.3197C42.0117 25.3883 45.3022 27.602 49.749 27.602C55.8092 27.602 57.7614 24.1403 57.7614 24.1403C57.7614 25.5172 57.8641 26.874 57.8641 26.874H61.7116C61.7116 26.874 61.5624 25.1922 61.5624 24.1162V14.8157C61.5624 8.71745 56.8043 7.43408 52.6079 7.43408ZM57.3836 17.9255V19.1597C57.3836 20.7696 56.4227 24.7719 50.7657 24.7719C47.6679 24.7719 46.3397 23.1736 46.3397 21.3197C46.3397 17.9472 50.8125 17.9255 57.3836 17.9255Z" fill="#F5AF02"/>
<path d="M59.2334 8.20605H64.1024L71.0901 22.6785L78.0619 8.20605H82.4725L69.7736 33.9716H65.1471L68.8115 26.7891L59.2334 8.20605Z" fill="#86B817"/>
</svg>
