<svg width="56" height="56" viewBox="0 0 56 56" fill="none" xmlns="http://www.w3.org/2000/svg">
<rect width="56" height="56" rx="14" fill="url(#paint0_linear_3612_66769)"/>
<rect width="56" height="56" rx="14" fill="url(#paint1_linear_3612_66769)"/>
<path fill-rule="evenodd" clip-rule="evenodd" d="M38.1 27.7196C37.6354 27.7196 37.2583 28.0961 37.2583 28.5612V36.6973H19.8364C24.9139 35.014 31.0861 29.964 32.7694 26.6417V29.1223C32.7694 29.5869 33.1465 29.964 33.6111 29.964C34.0757 29.964 34.4527 29.5869 34.4527 29.1223V24.6334C34.4527 24.1688 34.0757 23.7918 33.6111 23.7918H29.1222C28.6576 23.7918 28.2805 24.1688 28.2805 24.6334C28.2805 25.098 28.6576 25.4751 29.1222 25.4751H31.5496C29.9639 28.8418 22.6694 34.4529 18.1805 35.6071V21.5473H28.8416C29.3062 21.5473 29.6833 21.1708 29.6833 20.7057C29.6833 20.2405 29.3062 19.864 28.8416 19.864H18.1805C17.2508 19.864 16.4972 20.6176 16.4972 21.5473V36.6973C16.4972 37.6271 17.2508 38.3807 18.1805 38.3807H37.2583C38.1881 38.3807 38.9416 37.6271 38.9416 36.6973V28.5612C38.9416 28.0961 38.5646 27.7196 38.1 27.7196ZM38.6611 23.7918H37.5389C37.0743 23.7918 36.6972 24.1683 36.6972 24.6334C36.6972 25.0986 37.0743 25.4751 37.5389 25.4751H38.6611C39.1257 25.4751 39.5027 25.0986 39.5027 24.6334C39.5027 24.1683 39.1257 23.7918 38.6611 23.7918ZM33.05 20.9862C33.5146 20.9862 33.8916 20.6097 33.8916 20.1446V19.0223C33.8916 18.5572 33.5146 18.1807 33.05 18.1807C32.5854 18.1807 32.2083 18.5572 32.2083 19.0223V20.1446C32.2083 20.6097 32.5854 20.9862 33.05 20.9862ZM35.8214 21.8621C35.4932 21.5333 35.4932 21.0002 35.8214 20.6714L36.9437 19.5492C37.2725 19.221 37.8055 19.221 38.1343 19.5492C38.4626 19.878 38.4626 20.4111 38.1343 20.7399L37.0121 21.8621C36.8477 22.0265 36.6322 22.1084 36.4168 22.1084C36.2013 22.1084 35.9858 22.0265 35.8214 21.8621Z" fill="black"/>
<defs>
<linearGradient id="paint0_linear_3612_66769" x1="-6" y1="-17" x2="72.8482" y2="21.4485" gradientUnits="userSpaceOnUse">
<stop stop-color="#A7E4BC"/>
<stop offset="1" stop-color="#C4ED49"/>
</linearGradient>
<linearGradient id="paint1_linear_3612_66769" x1="-6" y1="-17" x2="72.8482" y2="21.4485" gradientUnits="userSpaceOnUse">
<stop stop-color="#5FD5B6"/>
<stop offset="1" stop-color="#4DFD88"/>
</linearGradient>
</defs>
</svg>
