<svg width="56" height="56" viewBox="0 0 56 56" fill="none" xmlns="http://www.w3.org/2000/svg">
<rect width="56" height="56" rx="14" fill="url(#paint0_linear_3612_66767)"/>
<rect width="56" height="56" rx="14" fill="url(#paint1_linear_3612_66767)"/>
<path d="M35.875 26.875C35.875 28.9636 35.0453 30.9666 33.5685 32.4435C32.0916 33.9203 30.0886 34.75 28 34.75M28 34.75C25.9114 34.75 23.9084 33.9203 22.4315 32.4435C20.9547 30.9666 20.125 28.9636 20.125 26.875M28 34.75V39.25M28 39.25H23.5M28 39.25H32.5M28 30.25C27.1049 30.25 26.2464 29.8944 25.6135 29.2615C24.9806 28.6286 24.625 27.7701 24.625 26.875V20.125C24.625 19.2299 24.9806 18.3714 25.6135 17.7385C26.2464 17.1056 27.1049 16.75 28 16.75C28.8951 16.75 29.7536 17.1056 30.3865 17.7385C31.0194 18.3714 31.375 19.2299 31.375 20.125V26.875C31.375 27.7701 31.0194 28.6286 30.3865 29.2615C29.7536 29.8944 28.8951 30.25 28 30.25Z" stroke="#3F3F46" stroke-width="2" stroke-linecap="round" stroke-linejoin="round"/>
<defs>
<linearGradient id="paint0_linear_3612_66767" x1="-6" y1="-17" x2="72.8482" y2="21.4485" gradientUnits="userSpaceOnUse">
<stop stop-color="#A7E4BC"/>
<stop offset="1" stop-color="#C4ED49"/>
</linearGradient>
<linearGradient id="paint1_linear_3612_66767" x1="-6" y1="-17" x2="72.8482" y2="21.4485" gradientUnits="userSpaceOnUse">
<stop stop-color="#5FD5B6"/>
<stop offset="1" stop-color="#4DFD88"/>
</linearGradient>
</defs>
</svg>
