<svg width="56" height="56" viewBox="0 0 56 56" fill="none" xmlns="http://www.w3.org/2000/svg">
<rect width="56" height="56" rx="14" fill="url(#paint0_linear_3612_66771)"/>
<rect width="56" height="56" rx="14" fill="url(#paint1_linear_3612_66771)"/>
<path fill-rule="evenodd" clip-rule="evenodd" d="M22.4057 24.7611V24.1722C22.4057 23.8472 22.6695 23.5833 22.9946 23.5833H27.7057C28.0307 23.5833 28.2946 23.8472 28.2946 24.1722V24.7611C28.2946 25.0862 28.0307 25.35 27.7057 25.35H22.9946C22.6695 25.35 22.4057 25.0862 22.4057 24.7611ZM22.4057 21.2278V20.6389C22.4057 20.3138 22.6695 20.05 22.9946 20.05H31.8279C32.153 20.05 32.4168 20.3138 32.4168 20.6389V21.2278C32.4168 21.5528 32.153 21.8167 31.8279 21.8167H22.9946C22.6695 21.8167 22.4057 21.5528 22.4057 21.2278ZM35.9501 38.3056H20.0501V36.6084L24.2454 32.9378L27.2157 34.9183C27.5484 35.1403 27.9872 35.1102 28.2875 34.8482L32.9986 30.726C33.3655 30.4044 33.4026 29.8468 33.0816 29.4793C32.7601 29.1124 32.2018 29.0747 31.835 29.3963L27.6327 33.0733L24.6623 31.0928C24.3302 30.8708 23.8914 30.9009 23.5905 31.1629L20.0501 34.2611V17.6944H35.9501V38.3056ZM36.5389 15.9277H19.4611C18.811 15.9277 18.2833 16.4554 18.2833 17.1055V38.8944C18.2833 39.5445 18.811 40.0722 19.4611 40.0722H36.5389C37.189 40.0722 37.7167 39.5445 37.7167 38.8944V17.1055C37.7167 16.4554 37.189 15.9277 36.5389 15.9277Z" fill="black"/>
<defs>
<linearGradient id="paint0_linear_3612_66771" x1="-6" y1="-17" x2="72.8482" y2="21.4485" gradientUnits="userSpaceOnUse">
<stop stop-color="#A7E4BC"/>
<stop offset="1" stop-color="#C4ED49"/>
</linearGradient>
<linearGradient id="paint1_linear_3612_66771" x1="-6" y1="-17" x2="72.8482" y2="21.4485" gradientUnits="userSpaceOnUse">
<stop stop-color="#5FD5B6"/>
<stop offset="1" stop-color="#4DFD88"/>
</linearGradient>
</defs>
</svg>
