<svg width="182" height="52" viewBox="0 0 182 52" fill="none" xmlns="http://www.w3.org/2000/svg">
<path d="M43.5967 10.1425L32.3289 2.03857C28.5505 -0.679523 23.4567 -0.679523 19.676 2.03857L8.40572 10.1425C5.57796 12.1768 3.90002 15.4467 3.90002 18.9301V33.0699C3.90002 36.5533 5.57556 39.8232 8.40572 41.8575L19.6736 49.9614C23.4519 52.6795 28.5457 52.6795 32.3265 49.9614L43.5943 41.8575C46.4221 39.8232 48.1 36.5533 48.1 33.0699V18.9301C48.1 15.4467 46.4245 12.1768 43.5967 10.1425ZM22.2061 5.55314C24.4745 3.9218 27.5303 3.9218 29.7964 5.55314L39.2951 12.3832C39.9816 12.8773 39.9816 13.8969 39.2951 14.3911L29.7964 21.2211C27.5279 22.8525 24.4721 22.8525 22.2061 21.2211L12.7074 14.3911C12.0208 13.8969 12.0208 12.8773 12.7074 12.3832L22.2061 5.55314ZM43.7696 33.0675C43.7696 35.1571 42.7638 37.1195 41.0666 38.3406L29.7988 46.4445C27.5303 48.0758 24.4745 48.0758 22.2085 46.4445L10.9406 38.3406C9.24349 37.1195 8.23769 35.1571 8.23769 33.0675V18.9277C8.23769 18.9205 8.23769 18.9133 8.23769 18.9061C8.24009 17.9057 9.38032 17.3299 10.1917 17.9129L19.6784 24.7357C23.4567 27.4538 28.5505 27.4538 32.3313 24.7357L41.818 17.9129C42.6317 17.3275 43.7696 17.9033 43.772 18.9061C43.772 18.9133 43.772 18.9205 43.772 18.9277V33.0675H43.7696Z" fill="#225AEA"/>
<path d="M32.2671 28.9988C30.3827 29.3683 29.1321 30.8581 28.2031 32.571C27.9294 33.0748 27.9486 33.7081 28.3735 34.0464C28.688 34.2959 29.1033 34.2815 29.4081 34.02C30.5748 33.0268 31.9358 32.4654 32.8168 32.2735C33.6978 32.0816 35.1453 32.0288 36.5495 32.4606C36.9192 32.5734 37.3081 32.4102 37.5193 32.048C37.8074 31.5538 37.6154 30.9636 37.2025 30.6038C35.6998 29.2963 34.1803 28.6222 32.2671 28.9988Z" fill="#225AEA"/>
<path d="M19.752 28.9988C21.6363 29.3683 22.887 30.8581 23.816 32.571C24.0896 33.0748 24.0704 33.7081 23.6455 34.0464C23.3311 34.2959 22.9158 34.2815 22.6109 34.02C21.4443 33.0268 20.0832 32.4654 19.2022 32.2735C18.3213 32.0816 16.8738 32.0288 15.4695 32.4606C15.0998 32.5734 14.7109 32.4102 14.4997 32.048C14.2117 31.5538 14.4037 30.9636 14.8166 30.6038C16.3193 29.2963 17.8388 28.6222 19.752 28.9988Z" fill="#225AEA"/>
<path d="M58 34.9394H65.1978C67.5872 34.9394 69.6607 34.4545 71.4182 33.4848C73.1757 32.5152 74.5382 31.1818 75.5058 29.4848C76.4734 27.7677 76.9572 25.8182 76.9572 23.6364C76.9572 21.4545 76.4734 19.5152 75.5058 17.8182C74.5382 16.1212 73.1757 14.7879 71.4182 13.8182C69.6607 12.8485 67.5872 12.3636 65.1978 12.3636H58V34.9394ZM62.5912 30.8485V16.4545H65.3163C66.7578 16.4545 68.0019 16.7475 69.0485 17.3333C70.0951 17.9192 70.9047 18.7475 71.4774 19.8182C72.0698 20.8889 72.366 22.1616 72.366 23.6364C72.366 25.0909 72.0698 26.3636 71.4774 27.4545C70.9047 28.5253 70.0951 29.3636 69.0485 29.9697C68.0019 30.5556 66.7578 30.8485 65.3163 30.8485H62.5912Z" fill="#151E3A"/>
<path d="M78.6829 34.9394H83.126V26.0303C83.126 24.798 83.4617 23.8485 84.1331 23.1818C84.8045 22.495 85.6832 22.1515 86.7693 22.1515H88.1615V18.2121H87.2136C86.2263 18.2121 85.3475 18.404 84.5774 18.7879C83.827 19.1515 83.2445 19.8485 82.8298 20.8788V18.3939H78.6829V34.9394Z" fill="#151E3A"/>
<path d="M97.2474 35.303C98.8469 35.303 100.298 34.9293 101.602 34.1818C102.905 33.4343 103.942 32.4141 104.712 31.1212C105.502 29.8081 105.897 28.3232 105.897 26.6667C105.897 24.9899 105.502 23.5051 104.712 22.2121C103.942 20.9192 102.905 19.899 101.602 19.1515C100.298 18.404 98.8469 18.0303 97.2474 18.0303C95.6479 18.0303 94.1866 18.404 92.8635 19.1515C91.5602 19.899 90.5136 20.9192 89.7237 22.2121C88.9536 23.5051 88.5685 24.9899 88.5685 26.6667C88.5685 28.3232 88.9536 29.8081 89.7237 31.1212C90.5136 32.4141 91.5602 33.4343 92.8635 34.1818C94.1866 34.9293 95.6479 35.303 97.2474 35.303ZM97.2474 31.2121C96.0428 31.2121 95.0555 30.7879 94.2853 29.9394C93.5349 29.0909 93.1597 28 93.1597 26.6667C93.1597 25.3535 93.5349 24.2727 94.2853 23.4242C95.0555 22.5556 96.0428 22.1212 97.2474 22.1212C98.452 22.1212 99.4294 22.5556 100.18 23.4242C100.93 24.2727 101.305 25.3535 101.305 26.6667C101.305 28 100.93 29.0909 100.18 29.9394C99.4294 30.7879 98.452 31.2121 97.2474 31.2121Z" fill="#151E3A"/>
<path d="M107.626 41H112.069V33.6667C112.641 34.2121 113.323 34.6263 114.112 34.9091C114.922 35.1717 115.781 35.303 116.689 35.303C118.269 35.303 119.681 34.9192 120.925 34.1515C122.169 33.3838 123.147 32.3434 123.858 31.0303C124.588 29.7172 124.954 28.2626 124.954 26.6667C124.954 25.0505 124.588 23.596 123.858 22.303C123.127 20.9899 122.14 19.9495 120.896 19.1818C119.651 18.4141 118.259 18.0303 116.719 18.0303C114.567 18.0303 112.918 18.7273 111.772 20.1212V18.3939H107.626V41ZM116.156 31.2121C114.952 31.2121 113.964 30.798 113.194 29.9697C112.444 29.1212 112.069 28.0202 112.069 26.6667C112.069 25.3333 112.444 24.2424 113.194 23.3939C113.964 22.5455 114.952 22.1212 116.156 22.1212C117.381 22.1212 118.388 22.5556 119.178 23.4242C119.967 24.2727 120.362 25.3535 120.362 26.6667C120.362 28 119.967 29.0909 119.178 29.9394C118.388 30.7879 117.381 31.2121 116.156 31.2121Z" fill="#151E3A"/>
<path d="M133.006 35.303C134.882 35.303 136.393 34.8283 137.538 33.8788C138.683 32.9293 139.256 31.6869 139.256 30.1515C139.256 28.9596 138.901 27.9596 138.19 27.1515C137.479 26.3232 136.452 25.7071 135.109 25.303L132.532 24.5152C131.367 24.1717 130.784 23.6768 130.784 23.0303C130.784 22.6061 130.942 22.2727 131.258 22.0303C131.594 21.7879 132.048 21.6667 132.621 21.6667C133.411 21.6667 134.112 21.8788 134.724 22.303C135.356 22.7071 135.79 23.2525 136.027 23.9394L139.315 22.3636C138.822 20.9899 137.972 19.9293 136.768 19.1818C135.583 18.4141 134.201 18.0303 132.621 18.0303C131.416 18.0303 130.35 18.2525 129.422 18.697C128.494 19.1212 127.773 19.7172 127.26 20.4848C126.746 21.2525 126.489 22.1515 126.489 23.1818C126.489 24.3535 126.845 25.3737 127.556 26.2424C128.267 27.0909 129.284 27.7071 130.607 28.0909L133.361 28.8788C134.428 29.1818 134.961 29.6667 134.961 30.3333C134.961 31.3232 134.309 31.8182 133.006 31.8182C132.137 31.8182 131.347 31.5657 130.636 31.0606C129.925 30.5556 129.363 29.8586 128.948 28.9697L125.69 30.5455C126.164 32 127.052 33.1616 128.356 34.0303C129.679 34.8788 131.229 35.303 133.006 35.303Z" fill="#151E3A"/>
<path d="M141.023 34.9394H145.466V25.2727C145.466 24.3232 145.742 23.5657 146.295 23C146.848 22.4141 147.559 22.1212 148.428 22.1212C149.297 22.1212 150.008 22.4141 150.561 23C151.114 23.5657 151.39 24.3232 151.39 25.2727V34.9394H155.833V24.303C155.833 23.0505 155.576 21.9596 155.063 21.0303C154.55 20.0808 153.829 19.3434 152.901 18.8182C151.992 18.2929 150.926 18.0303 149.702 18.0303C148.793 18.0303 147.974 18.1919 147.243 18.5152C146.513 18.8182 145.92 19.2929 145.466 19.9394V12H141.023V34.9394Z" fill="#151E3A"/>
<path d="M157.866 16.9091H162.309V12.3636H157.866V16.9091ZM157.866 34.9394H162.309V18.3939H157.866V34.9394Z" fill="#151E3A"/>
<path d="M164.672 41H169.115V33.6667C169.688 34.2121 170.369 34.6263 171.159 34.9091C171.968 35.1717 172.827 35.303 173.736 35.303C175.316 35.303 176.728 34.9192 177.972 34.1515C179.216 33.3838 180.193 32.3434 180.904 31.0303C181.635 29.7172 182 28.2626 182 26.6667C182 25.0505 181.635 23.596 180.904 22.303C180.173 20.9899 179.186 19.9495 177.942 19.1818C176.698 18.4141 175.306 18.0303 173.765 18.0303C171.613 18.0303 169.964 18.7273 168.819 20.1212V18.3939H164.672V41ZM173.203 31.2121C171.998 31.2121 171.011 30.798 170.241 29.9697C169.49 29.1212 169.115 28.0202 169.115 26.6667C169.115 25.3333 169.49 24.2424 170.241 23.3939C171.011 22.5455 171.998 22.1212 173.203 22.1212C174.427 22.1212 175.434 22.5556 176.224 23.4242C177.014 24.2727 177.409 25.3535 177.409 26.6667C177.409 28 177.014 29.0909 176.224 29.9394C175.434 30.7879 174.427 31.2121 173.203 31.2121Z" fill="#151E3A"/>
</svg>
