<svg width="48" height="48" viewBox="0 0 48 48" fill="none" xmlns="http://www.w3.org/2000/svg">
<rect x="0.5" y="0.5" width="47" height="47" rx="5.5" fill="white"/>
<rect x="12" y="17.3335" width="24" height="18.6667" rx="4" fill="#661AC6"/>
<path fill-rule="evenodd" clip-rule="evenodd" d="M16.2132 16.1803C13.0988 16.4835 10.6647 19.109 10.6647 22.303V31.7065C10.6647 35.1041 13.419 37.8584 16.8167 37.8584H31.1834C34.581 37.8584 37.3353 35.1041 37.3353 31.7065V22.303C37.3353 19.1093 34.9017 16.484 31.7877 16.1804C31.769 16.1786 31.7503 16.1768 31.7316 16.1752C31.7097 15.9647 31.6738 15.7583 31.6248 15.5571C31.344 14.4045 30.6331 13.4202 29.6718 12.784C28.9377 12.2981 28.0575 12.0151 27.1113 12.0151H20.8896C19.9433 12.0151 19.0632 12.2981 18.329 12.7839C17.3677 13.4202 16.6569 14.4045 16.3761 15.5572C16.3271 15.7583 16.2912 15.9646 16.2693 16.1751C16.2506 16.1767 16.2319 16.1785 16.2132 16.1803ZM31.3425 18.7876H29.0549H18.946H16.6577L16.5009 18.8015C14.7087 18.9595 13.3013 20.4683 13.3013 22.303V31.7065C13.3013 33.648 14.8752 35.2219 16.8167 35.2219H31.1834C33.1249 35.2219 34.6988 33.648 34.6988 31.7065V22.303C34.6988 20.4685 33.2916 18.9597 31.4997 18.8015L31.3425 18.7876ZM28.4383 15.1524C28.0848 14.8414 27.621 14.6524 27.114 14.6517C27.1131 14.6517 27.1122 14.6517 27.1113 14.6517H20.8896C20.381 14.6517 19.9165 14.8407 19.5626 15.1524C19.267 15.4127 19.0486 15.7585 18.946 16.1511H20.8896H27.1113H29.0549C28.9523 15.7585 28.7339 15.4127 28.4383 15.1524Z" fill="#661AC6"/>
<rect x="22.6667" y="25.3335" width="2.66667" height="4" rx="1.33333" fill="white"/>
<path d="M13.3333 22.6665L18.6274 24.2547C19.4845 24.5119 20.4134 24.322 21.1008 23.7491L22.2928 22.7558C23.2817 21.9317 24.7182 21.9317 25.7071 22.7558L26.8991 23.7491C27.5865 24.322 28.5155 24.5119 29.3725 24.2547L34.6666 22.6665" stroke="white" stroke-width="2.66667" stroke-linecap="round"/>
<rect x="0.5" y="0.5" width="47" height="47" rx="5.5" stroke="#F2F3F8"/>
</svg>
