<svg width="48" height="48" viewBox="0 0 48 48" fill="none" xmlns="http://www.w3.org/2000/svg">
<rect x="0.5" y="0.5" width="47" height="47" rx="5.5" fill="white"/>
<path d="M22.6666 14.6667C22.6666 13.9303 22.0679 13.3257 21.336 13.4073C19.4334 13.6196 17.6023 14.2849 15.9998 15.3557C14.0264 16.6743 12.4883 18.5484 11.5801 20.7411C10.6718 22.9338 10.4342 25.3466 10.8972 27.6744C11.3602 30.0022 12.5031 32.1404 14.1814 33.8186C15.8596 35.4968 17.9978 36.6397 20.3255 37.1027C22.6533 37.5658 25.0661 37.3281 27.2588 36.4199C29.4515 35.5116 31.3257 33.9736 32.6443 32.0002C33.715 30.3977 34.3804 28.5666 34.5926 26.6639C34.6743 25.9321 34.0697 25.3333 33.3333 25.3333H24C23.2636 25.3333 22.6666 24.7364 22.6666 24V14.6667Z" fill="#16895A"/>
<path d="M36 22.6668C36.7364 22.6668 37.341 22.068 37.2594 21.3362C37.1345 20.2171 36.8525 19.119 36.4199 18.0746C35.8169 16.6187 34.933 15.2958 33.8187 14.1815C32.7044 13.0672 31.3815 12.1833 29.9256 11.5803C28.8812 11.1477 27.783 10.8657 26.664 10.7408C25.9321 10.6592 25.3334 11.2638 25.3334 12.0001V21.3335C25.3334 22.0699 25.9303 22.6668 26.6667 22.6668H36Z" fill="#16895A"/>
<rect x="0.5" y="0.5" width="47" height="47" rx="5.5" stroke="#F2F3F8"/>
</svg>
