<svg width="48" height="48" viewBox="0 0 48 48" fill="none" xmlns="http://www.w3.org/2000/svg">
<rect x="0.5" y="0.5" width="47" height="47" rx="5.5" fill="white"/>
<path fill-rule="evenodd" clip-rule="evenodd" d="M24 10.6665C23.2636 10.6665 22.6667 11.2635 22.6667 11.9998V13.4157C17.8417 14.0174 14.0175 17.8415 13.4159 22.6665H12C11.2636 22.6665 10.6667 23.2635 10.6667 23.9998C10.6667 24.7362 11.2636 25.3332 12 25.3332H13.4159C14.0175 30.1581 17.8417 33.9823 22.6667 34.584V35.9998C22.6667 36.7362 23.2636 37.3332 24 37.3332C24.7364 37.3332 25.3334 36.7362 25.3334 35.9998V34.584C30.1583 33.9823 33.9825 30.1581 34.5842 25.3332H36C36.7364 25.3332 37.3334 24.7362 37.3334 23.9998C37.3334 23.2635 36.7364 22.6665 36 22.6665H34.5842C33.9825 17.8415 30.1583 14.0174 25.3334 13.4157V11.9998C25.3334 11.2635 24.7364 10.6665 24 10.6665ZM24 26.6665C25.4728 26.6665 26.6667 25.4726 26.6667 23.9998C26.6667 22.5271 25.4728 21.3332 24 21.3332C22.5273 21.3332 21.3334 22.5271 21.3334 23.9998C21.3334 25.4726 22.5273 26.6665 24 26.6665Z" fill="#D71313"/>
<rect x="0.5" y="0.5" width="47" height="47" rx="5.5" stroke="#F2F3F8"/>
</svg>
