<svg id="SvgjsSvg1001" width="256" height="256" xmlns="http://www.w3.org/2000/svg" version="1.1" xmlns:xlink="http://www.w3.org/1999/xlink" xmlns:svgjs="http://svgjs.com/svgjs"><defs id="SvgjsDefs1002"></defs><g id="SvgjsG1008"><svg xmlns="http://www.w3.org/2000/svg" viewBox="0 0 66 66" width="256" height="256"><path fill="#ffcc33" d="M5.57 20.56h54.86v37.33H5.57z" class="colorfc3 svgShape"></path><path fill="#666666" d="M10.63 36.05h16.62v21.84H10.63z" class="color666 svgShape"></path><path fill="#66ccff" d="M12.07 37.5H25.8v20.39H12.07z" class="color6cf svgShape"></path><path fill="#666666" d="M43.16 33.52h10.36V44.4H43.16z" class="color666 svgShape"></path><path fill="#66ccff" d="M52.095 34.973v7.97h-7.5v-7.97z" class="color6cf svgShape"></path><path fill="#666666" d="M43.16 42.94h10.36v10.88H43.16z" class="color666 svgShape"></path><path fill="#66ccff" d="M52.087 44.395v7.97h-7.5v-7.97z" class="color6cf svgShape"></path><path fill="#666666" d="M34.23 33.52h10.36V44.4H34.23z" class="color666 svgShape"></path><path fill="#66ccff" d="M43.163 34.975v7.97h-7.5v-7.97z" class="color6cf svgShape"></path><path fill="#666666" d="M34.23 42.94h10.36v10.88H34.23z" class="color666 svgShape"></path><path fill="#66ccff" d="M43.155 44.397v7.97h-7.5v-7.97z" class="color6cf svgShape"></path><path fill="#cf4c44" d="M10.14 23.19v1.34c0 2.52-2.05 4.57-4.57 4.57C3.05 29.1 1 27.06 1 24.53v-1.34h9.14z" class="colorcf4c44 svgShape"></path><path fill="#e1e5e4" d="M19.29 23.19v1.34c0 2.52-2.05 4.57-4.57 4.57-2.52 0-4.57-2.05-4.57-4.57v-1.34h9.14z" class="colore1e5e4 svgShape"></path><path fill="#cf4c44" d="M28.43 23.19v1.34c0 2.52-2.05 4.57-4.57 4.57-2.52 0-4.57-2.05-4.57-4.57v-1.34h9.14z" class="colorcf4c44 svgShape"></path><path fill="#e1e5e4" d="M37.57 23.19v1.34c0 2.52-2.05 4.57-4.57 4.57-2.52 0-4.57-2.05-4.57-4.57v-1.34h9.14z" class="colore1e5e4 svgShape"></path><path fill="#cf4c44" d="M46.71 23.19v1.34c0 2.52-2.05 4.57-4.57 4.57-2.52 0-4.57-2.05-4.57-4.57v-1.34h9.14z" class="colorcf4c44 svgShape"></path><path fill="#e1e5e4" d="M55.86 23.19v1.34c0 2.52-2.05 4.57-4.57 4.57-2.52 0-4.57-2.05-4.57-4.57v-1.34h9.14z" class="colore1e5e4 svgShape"></path><path fill="#cf4c44" d="M65 23.19v1.34c0 2.52-2.05 4.57-4.57 4.57-2.52 0-4.57-2.05-4.57-4.57v-1.34H65z" class="colorcf4c44 svgShape"></path><path fill="#fc5151" d="m14.88 7.48-4.74 15.71H1L7.63 7.48z" class="colorfc5151 svgShape"></path><path fill="#f5f5f5" d="m22.13 7.48-2.84 15.71h-9.15l4.74-15.71z" class="colorf5f5f5 svgShape"></path><path fill="#fc5151" d="m29.38 7.48-.95 15.71h-9.14l2.84-15.71z" class="colorfc5151 svgShape"></path><path fill="#f5f5f5" d="m36.63 7.48.94 15.71h-9.14l.95-15.71z" class="colorf5f5f5 svgShape"></path><path fill="#fc5151" d="m43.88 7.48 2.83 15.71h-9.14l-.94-15.71z" class="colorfc5151 svgShape"></path><path fill="#f5f5f5" d="m51.13 7.48 4.73 15.71h-9.15L43.88 7.48z" class="colorf5f5f5 svgShape"></path><path fill="#fc5151" d="M58.38 7.48 65 23.19h-9.14L51.13 7.48z" class="colorfc5151 svgShape"></path><path fill="#666666" d="M7.63 3.65h50.74v3.84H7.63zM3.04 57.89h59.92v4.47H3.04z" class="color666 svgShape"></path></svg></g></svg>