<svg width="73" height="28" viewBox="0 0 73 28" fill="none" xmlns="http://www.w3.org/2000/svg">
<g clip-path="url(#clip0_5409_96380)">
<path d="M41.3299 0.532232C39.9415 1.22645 39.3398 2.52231 39.3398 6.03967C39.3398 6.03967 40.0341 5.34545 41.1448 4.92893C41.9547 4.6281 42.5332 4.23471 42.9498 3.93388C44.1531 3.03141 44.3382 1.9438 44.3382 0.0462812C44.3151 0.0462812 42.4175 -0.0694213 41.3299 0.532232Z" fill="black"/>
<path d="M32.8381 1.34243C31.6348 2.33748 31.334 4.04987 31.334 4.04987L27.4464 18.9524L24.253 6.75731C23.9522 5.46144 23.3505 3.86475 22.4481 2.754C21.3373 1.34243 19.0233 1.24987 18.7456 1.24987C18.5373 1.24987 16.2464 1.34243 15.0431 2.754C14.1406 3.86475 13.539 5.46144 13.2381 6.75731L10.2299 18.9524L6.34228 4.04987C6.34228 4.04987 6.04145 2.45318 4.83815 1.34243C2.94062 -0.369962 0.140625 0.0465665 0.140625 0.0465665L7.54558 27.9309C7.54558 27.9309 9.9522 28.1391 11.1555 27.5375C12.7522 26.7276 13.5621 26.149 14.4646 22.3309C15.3671 18.9292 17.7737 9.02508 17.9588 8.33086C18.0514 8.03004 18.2596 7.12756 18.8613 7.12756C19.4629 7.12756 19.6712 7.93748 19.7638 8.33086C19.972 9.02508 22.3555 18.9292 23.258 22.3309C24.253 26.1259 24.9472 26.7276 26.5671 27.5375C27.7704 28.1391 30.177 27.9309 30.177 27.9309L37.5357 0.0465665C37.5357 0.0465665 34.7357 -0.346822 32.8381 1.34243Z" fill="black"/>
<path d="M44.3157 4.53552C44.3157 4.53552 43.8066 5.22974 42.8116 5.83139C42.1174 6.22478 41.5157 6.43304 40.8215 6.82643C39.6182 7.42808 39.3174 8.02974 39.3174 8.93222V9.23304V10.7372V11.038V27.838C39.3174 27.838 41.2149 28.0463 42.4182 27.4446C44.0149 26.6347 44.3157 25.8479 44.3157 22.4463V5.64627V4.53552Z" fill="black"/>
<path d="M62.7118 14.0462L72.1068 0.1388C72.1068 0.1388 68.2192 -0.555415 66.206 1.24954C64.9101 2.36029 63.6142 4.44293 63.6142 4.44293L60.2126 9.44128C60.0043 9.7421 59.8192 9.95037 59.5184 9.95037C59.2175 9.95037 58.9167 9.64954 58.8242 9.44128L55.4225 4.44293C55.4225 4.44293 54.0341 2.45285 52.8308 1.24954C50.8407 -0.555415 46.9299 0.1388 46.9299 0.1388L56.0242 14.0231L46.7217 27.9074C46.7217 27.9074 50.8175 28.4165 52.8308 26.6115C54.1266 25.5008 55.3299 23.6033 55.3299 23.6033L58.7316 18.6049C58.9399 18.3041 59.125 18.0958 59.4258 18.0958C59.7266 18.0958 60.0275 18.3967 60.12 18.6049L63.5217 23.6033C63.5217 23.6033 64.8175 25.5008 66.0209 26.6115C68.0109 28.4165 72.0142 27.9074 72.0142 27.9074L62.7118 14.0462Z" fill="black"/>
</g>
<defs>
<clipPath id="clip0_5409_96380">
<rect width="71.9669" height="28" fill="white" transform="translate(0.140625)"/>
</clipPath>
</defs>
</svg>
